
      <svg data-logo="logo" xmlns="http://www.w3.org/2000/svg" viewBox="0 0 315 42">
        <g id="logogram" transform="translate(0, 1) rotate(0) "><path d="M33.724 36.5809C37.7426 32.5622 40.0003 27.1118 40.0003 21.4286C40.0003 15.7454 37.7426 10.2949 33.724 6.27629C29.7054 2.25765 24.2549 1.02188e-06 18.5717 0C12.8885 -1.02188e-06 7.43807 2.25764 3.41943 6.27628L10.4905 13.3473C11.6063 14.4631 13.4081 14.4074 14.8276 13.7181C15.9836 13.1568 17.2622 12.8571 18.5717 12.8571C20.845 12.8571 23.0252 13.7602 24.6326 15.3677C26.2401 16.9751 27.1431 19.1553 27.1431 21.4286C27.1431 22.7381 26.8435 24.0167 26.2822 25.1727C25.5929 26.5922 25.5372 28.394 26.6529 29.5098L33.724 36.5809Z" fill="#297AFF"/><path d="M30 40H19.5098C17.9943 40 16.5408 39.398 15.4692 38.3263L1.67368 24.5308C0.60204 23.4592 0 22.0057 0 20.4902V10L30 40Z" fill="#34C2FF"/><path d="M10.7143 39.9999H4.28571C1.91878 39.9999 0 38.0812 0 35.7142V29.2856L10.7143 39.9999Z" fill="#34C2FF"/></g>
        <g id="logotype" transform="translate(46, 7.5)"><path fill="#111111" d="M22.58 27L15.76 27L6.84 1.54L12.63 1.54L16.70 13.82Q17.43 16.15 18.19 18.94Q18.94 21.74 19.77 25.05L19.77 25.05L18.65 25.05Q19.47 21.70 20.18 18.93Q20.90 16.15 21.60 13.82L21.60 13.82L25.53 1.54L31.29 1.54L22.58 27ZM37.37 27.38L37.37 27.38Q35.56 27.38 34.12 26.74Q32.68 26.09 31.85 24.82Q31.02 23.55 31.02 21.65L31.02 21.65Q31.02 20.06 31.61 18.98Q32.20 17.91 33.21 17.26Q34.23 16.61 35.52 16.27Q36.81 15.93 38.23 15.79L38.23 15.79Q39.89 15.62 40.90 15.47Q41.92 15.33 42.39 15.01Q42.86 14.70 42.86 14.08L42.86 14.08L42.86 13.99Q42.86 13.17 42.52 12.61Q42.18 12.05 41.51 11.75Q40.84 11.45 39.87 11.45L39.87 11.45Q38.88 11.45 38.14 11.75Q37.41 12.05 36.95 12.54Q36.49 13.04 36.26 13.65L36.26 13.65L31.56 12.87Q32.06 11.21 33.20 10.05Q34.35 8.88 36.05 8.27Q37.75 7.65 39.87 7.65L39.87 7.65Q41.43 7.65 42.88 8.02Q44.33 8.39 45.48 9.16Q46.64 9.93 47.31 11.16Q47.99 12.39 47.99 14.13L47.99 14.13L47.99 27L43.13 27L43.13 24.35L42.96 24.35Q42.50 25.24 41.73 25.91Q40.96 26.59 39.88 26.98Q38.79 27.38 37.37 27.38ZM38.83 23.77L38.83 23.77Q40.04 23.77 40.96 23.29Q41.87 22.81 42.38 21.99Q42.89 21.17 42.89 20.16L42.89 20.16L42.89 18.10Q42.67 18.27 42.21 18.40Q41.75 18.54 41.19 18.64Q40.62 18.75 40.08 18.83Q39.53 18.92 39.10 18.97L39.10 18.97Q38.16 19.10 37.44 19.41Q36.73 19.72 36.33 20.22Q35.94 20.73 35.94 21.51L35.94 21.51Q35.94 22.25 36.32 22.75Q36.69 23.26 37.33 23.51Q37.97 23.77 38.83 23.77ZM58.63 27.38L58.63 27.38Q55.74 27.38 53.65 26.14Q51.56 24.90 50.42 22.68Q49.28 20.47 49.28 17.53L49.28 17.53Q49.28 14.56 50.42 12.35Q51.56 10.13 53.65 8.89Q55.74 7.65 58.63 7.65L58.63 7.65Q60.32 7.65 61.76 8.10Q63.20 8.54 64.31 9.36Q65.42 10.18 66.14 11.36Q66.85 12.54 67.13 14.01L67.13 14.01L62.36 14.90Q62.20 14.15 61.88 13.56Q61.55 12.97 61.09 12.55Q60.63 12.13 60.03 11.91Q59.42 11.69 58.68 11.69L58.68 11.69Q57.32 11.69 56.39 12.42Q55.45 13.16 54.98 14.47Q54.51 15.79 54.51 17.52L54.51 17.52Q54.51 19.22 54.98 20.53Q55.45 21.84 56.39 22.59Q57.32 23.34 58.68 23.34L58.68 23.34Q59.42 23.34 60.03 23.11Q60.65 22.88 61.13 22.45Q61.61 22.01 61.93 21.39Q62.26 20.78 62.39 20.01L62.39 20.01L67.16 20.88Q66.89 22.40 66.17 23.59Q65.45 24.78 64.34 25.63Q63.23 26.49 61.79 26.93Q60.34 27.38 58.63 27.38ZM73.74 27.38L73.74 27.38Q71.93 27.38 70.48 26.74Q69.04 26.09 68.21 24.82Q67.38 23.55 67.38 21.65L67.38 21.65Q67.38 20.06 67.97 18.98Q68.56 17.91 69.58 17.26Q70.59 16.61 71.88 16.27Q73.17 15.93 74.59 15.79L74.59 15.79Q76.25 15.62 77.27 15.47Q78.28 15.33 78.75 15.01Q79.22 14.70 79.22 14.08L79.22 14.08L79.22 13.99Q79.22 13.17 78.88 12.61Q78.54 12.05 77.87 11.75Q77.21 11.45 76.23 11.45L76.23 11.45Q75.24 11.45 74.51 11.75Q73.77 12.05 73.31 12.54Q72.85 13.04 72.63 13.65L72.63 13.65L67.93 12.87Q68.42 11.21 69.57 10.05Q70.71 8.88 72.41 8.27Q74.11 7.65 76.23 7.65L76.23 7.65Q77.79 7.65 79.24 8.02Q80.69 8.39 81.85 9.16Q83.00 9.93 83.68 11.16Q84.35 12.39 84.35 14.13L84.35 14.13L84.35 27L79.50 27L79.50 24.35L79.33 24.35Q78.86 25.24 78.10 25.91Q77.33 26.59 76.24 26.98Q75.16 27.38 73.74 27.38ZM75.19 23.77L75.19 23.77Q76.40 23.77 77.32 23.29Q78.23 22.81 78.75 21.99Q79.26 21.17 79.26 20.16L79.26 20.16L79.26 18.10Q79.04 18.27 78.57 18.40Q78.11 18.54 77.55 18.64Q76.99 18.75 76.44 18.83Q75.89 18.92 75.46 18.97L75.46 18.97Q74.52 19.10 73.81 19.41Q73.09 19.72 72.70 20.22Q72.30 20.73 72.30 21.51L72.30 21.51Q72.30 22.25 72.68 22.75Q73.05 23.26 73.70 23.51Q74.34 23.77 75.19 23.77ZM84.61 7.89L95.94 7.89L95.94 11.81L84.61 11.81L84.61 7.89ZM87.24 21.86L87.24 3.35L92.36 3.35L92.36 21.41Q92.36 22.32 92.77 22.75Q93.17 23.19 94.11 23.19L94.11 23.19Q94.40 23.19 94.93 23.11Q95.46 23.04 95.73 22.97L95.73 22.97L96.47 26.81Q95.61 27.07 94.76 27.17Q93.92 27.27 93.15 27.27L93.15 27.27Q90.28 27.27 88.76 25.87Q87.24 24.47 87.24 21.86L87.24 21.86ZM102.12 27L96.99 27L96.99 7.89L102.12 7.89L102.12 27ZM99.56 5.40L99.56 5.40Q98.39 5.40 97.57 4.63Q96.75 3.86 96.75 2.77L96.75 2.77Q96.75 1.67 97.57 0.90Q98.39 0.13 99.56 0.13L99.56 0.13Q100.72 0.13 101.55 0.90Q102.38 1.66 102.38 2.77L102.38 2.77Q102.38 3.86 101.55 4.63Q100.72 5.40 99.56 5.40ZM112.75 27.38L112.75 27.38Q109.88 27.38 107.77 26.14Q105.67 24.90 104.54 22.68Q103.40 20.47 103.40 17.53L103.40 17.53Q103.40 14.56 104.54 12.35Q105.67 10.13 107.77 8.89Q109.88 7.65 112.75 7.65L112.75 7.65Q115.64 7.65 117.73 8.89Q119.82 10.13 120.96 12.35Q122.10 14.56 122.10 17.53L122.10 17.53Q122.10 20.47 120.96 22.68Q119.82 24.90 117.73 26.14Q115.64 27.38 112.75 27.38ZM112.75 23.34L112.75 23.34Q114.12 23.34 115.04 22.58Q115.96 21.82 116.42 20.50Q116.88 19.17 116.88 17.52L116.88 17.52Q116.88 15.82 116.42 14.51Q115.96 13.19 115.04 12.44Q114.12 11.69 112.75 11.69L112.75 11.69Q111.38 11.69 110.47 12.44Q109.55 13.19 109.09 14.51Q108.63 15.82 108.63 17.52L108.63 17.52Q108.63 19.17 109.09 20.50Q109.55 21.82 110.47 22.58Q111.38 23.34 112.75 23.34ZM128.52 15.94L128.52 15.94L128.52 27L123.39 27L123.39 7.89L128.23 7.89L128.31 12.66L128.01 12.66Q128.76 10.27 130.29 8.96Q131.82 7.65 134.24 7.65L134.24 7.65Q136.23 7.65 137.70 8.52Q139.17 9.38 139.99 11.00Q140.81 12.61 140.81 14.85L140.81 14.85L140.81 27L135.68 27L135.68 15.74Q135.68 13.96 134.77 12.95Q133.85 11.94 132.23 11.94L132.23 11.94Q131.15 11.94 130.31 12.41Q129.46 12.88 128.99 13.77Q128.52 14.66 128.52 15.94ZM148.24 27L143.03 27L143.03 1.54L152.96 1.54Q155.86 1.54 157.90 2.64Q159.93 3.74 161.00 5.68Q162.07 7.62 162.07 10.13L162.07 10.13Q162.07 12.66 160.98 14.58Q159.89 16.51 157.84 17.59Q155.78 18.68 152.84 18.68L152.84 18.68L146.45 18.68L146.45 14.47L152.00 14.47Q153.61 14.47 154.64 13.92Q155.67 13.36 156.18 12.39Q156.68 11.41 156.68 10.13L156.68 10.13Q156.68 8.85 156.18 7.88Q155.67 6.90 154.63 6.37Q153.59 5.84 151.98 5.84L151.98 5.84L148.24 5.84L148.24 27ZM179.63 27L163.43 27L163.43 1.54L168.64 1.54L168.64 22.68L179.63 22.68L179.63 27ZM186.16 27.38L186.16 27.38Q184.35 27.38 182.90 26.74Q181.46 26.09 180.63 24.82Q179.80 23.55 179.80 21.65L179.80 21.65Q179.80 20.06 180.39 18.98Q180.98 17.91 182.00 17.26Q183.01 16.61 184.30 16.27Q185.59 15.93 187.01 15.79L187.01 15.79Q188.67 15.62 189.69 15.47Q190.70 15.33 191.17 15.01Q191.64 14.70 191.64 14.08L191.64 14.08L191.64 13.99Q191.64 13.17 191.30 12.61Q190.96 12.05 190.29 11.75Q189.63 11.45 188.65 11.45L188.65 11.45Q187.66 11.45 186.93 11.75Q186.19 12.05 185.73 12.54Q185.27 13.04 185.05 13.65L185.05 13.65L180.35 12.87Q180.84 11.21 181.99 10.05Q183.13 8.88 184.83 8.27Q186.53 7.65 188.65 7.65L188.65 7.65Q190.21 7.65 191.66 8.02Q193.11 8.39 194.27 9.16Q195.42 9.93 196.10 11.16Q196.77 12.39 196.77 14.13L196.77 14.13L196.77 27L191.92 27L191.92 24.35L191.75 24.35Q191.28 25.24 190.52 25.91Q189.75 26.59 188.66 26.98Q187.58 27.38 186.16 27.38ZM187.61 23.77L187.61 23.77Q188.82 23.77 189.74 23.29Q190.65 22.81 191.17 21.99Q191.68 21.17 191.68 20.16L191.68 20.16L191.68 18.10Q191.46 18.27 190.99 18.40Q190.53 18.54 189.97 18.64Q189.40 18.75 188.86 18.83Q188.31 18.92 187.88 18.97L187.88 18.97Q186.94 19.10 186.23 19.41Q185.51 19.72 185.12 20.22Q184.72 20.73 184.72 21.51L184.72 21.51Q184.72 22.25 185.10 22.75Q185.47 23.26 186.11 23.51Q186.76 23.77 187.61 23.77ZM204.00 15.94L204.00 15.94L204.00 27L198.87 27L198.87 7.89L203.71 7.89L203.79 12.66L203.48 12.66Q204.24 10.27 205.77 8.96Q207.30 7.65 209.72 7.65L209.72 7.65Q211.70 7.65 213.17 8.52Q214.64 9.38 215.46 11.00Q216.29 12.61 216.29 14.85L216.29 14.85L216.29 27L211.16 27L211.16 15.74Q211.16 13.96 210.24 12.95Q209.33 11.94 207.71 11.94L207.71 11.94Q206.63 11.94 205.78 12.41Q204.94 12.88 204.47 13.77Q204.00 14.66 204.00 15.94ZM223.51 15.94L223.51 15.94L223.51 27L218.39 27L218.39 7.89L223.22 7.89L223.31 12.66L223.00 12.66Q223.75 10.27 225.28 8.96Q226.81 7.65 229.24 7.65L229.24 7.65Q231.22 7.65 232.69 8.52Q234.16 9.38 234.98 11.00Q235.80 12.61 235.80 14.85L235.80 14.85L235.80 27L230.67 27L230.67 15.74Q230.67 13.96 229.76 12.95Q228.84 11.94 227.22 11.94L227.22 11.94Q226.14 11.94 225.30 12.41Q224.45 12.88 223.98 13.77Q223.51 14.66 223.51 15.94ZM246.53 27.38L246.53 27.38Q243.61 27.38 241.49 26.18Q239.37 24.98 238.23 22.78Q237.10 20.57 237.10 17.55L237.10 17.55Q237.10 14.59 238.22 12.37Q239.35 10.15 241.42 8.90Q243.49 7.65 246.27 7.65L246.27 7.65Q248.15 7.65 249.78 8.25Q251.40 8.85 252.63 10.06Q253.86 11.26 254.55 13.07Q255.25 14.88 255.25 17.34L255.25 17.34L255.25 18.78L239.20 18.78L239.20 15.57L252.73 15.57L250.34 16.42Q250.34 14.93 249.89 13.83Q249.44 12.73 248.54 12.12Q247.64 11.52 246.31 11.52L246.31 11.52Q244.99 11.52 244.06 12.13Q243.13 12.75 242.65 13.80Q242.17 14.85 242.17 16.20L242.17 16.20L242.17 18.47Q242.17 20.13 242.73 21.26Q243.28 22.39 244.28 22.95Q245.28 23.51 246.62 23.51L246.62 23.51Q247.52 23.51 248.26 23.26Q248.99 23.00 249.51 22.50Q250.03 21.99 250.31 21.26L250.31 21.26L254.96 22.13Q254.49 23.70 253.35 24.89Q252.20 26.08 250.49 26.73Q248.77 27.38 246.53 27.38ZM261.60 27L256.47 27L256.47 7.89L261.43 7.89L261.43 11.23L261.64 11.23Q262.17 9.45 263.40 8.54Q264.64 7.64 266.25 7.64L266.25 7.64Q266.64 7.64 267.10 7.68Q267.55 7.72 267.91 7.81L267.91 7.81L267.91 12.39Q267.57 12.27 266.92 12.20Q266.27 12.13 265.69 12.13L265.69 12.13Q264.52 12.13 263.58 12.64Q262.64 13.14 262.12 14.04Q261.60 14.93 261.60 16.13L261.60 16.13L261.60 27Z"/></g>
        
      </svg>
    